<?xml version="1.0" encoding="UTF-8" standalone="no"?>
<!-- Created with Inkscape (http://www.inkscape.org/) -->

<svg
   xmlns:dc="http://purl.org/dc/elements/1.1/"
   xmlns:cc="http://creativecommons.org/ns#"
   xmlns:rdf="http://www.w3.org/1999/02/22-rdf-syntax-ns#"
   xmlns:svg="http://www.w3.org/2000/svg"
   xmlns="http://www.w3.org/2000/svg"
   xmlns:xlink="http://www.w3.org/1999/xlink"
   xmlns:sodipodi="http://sodipodi.sourceforge.net/DTD/sodipodi-0.dtd"
   xmlns:inkscape="http://www.inkscape.org/namespaces/inkscape"
   width="744.09448819"
   height="1052.3622047"
   id="svg2"
   version="1.1"
   inkscape:version="0.48.3.1 r9886"
   sodipodi:docname="myjig.svg">
  <defs
     id="defs4">
    <linearGradient
       id="linearGradient3990">
      <stop
         id="stop3992"
         offset="0"
         style="stop-color:#0f51cd;stop-opacity:1;" />
      <stop
         id="stop3994"
         offset="1"
         style="stop-color:#046899;stop-opacity:0.13574661" />
    </linearGradient>
    <linearGradient
       inkscape:collect="always"
       id="linearGradient3962">
      <stop
         style="stop-color:#ffffff;stop-opacity:1"
         offset="0"
         id="stop3964" />
      <stop
         style="stop-color:#000000;stop-opacity:0;"
         offset="1"
         id="stop3966" />
    </linearGradient>
    <linearGradient
       inkscape:collect="always"
       id="linearGradient3934">
      <stop
         style="stop-color:#046899;stop-opacity:1;"
         offset="0"
         id="stop3936" />
      <stop
         style="stop-color:#046899;stop-opacity:0;"
         offset="1"
         id="stop3938" />
    </linearGradient>
    <linearGradient
       inkscape:collect="always"
       id="linearGradient3926">
      <stop
         style="stop-color:#046899;stop-opacity:1;"
         offset="0"
         id="stop3928" />
      <stop
         style="stop-color:#046899;stop-opacity:0;"
         offset="1"
         id="stop3930" />
    </linearGradient>
    <linearGradient
       id="linearGradient3912">
      <stop
         style="stop-color:#000000;stop-opacity:0.2303665"
         offset="0"
         id="stop3914" />
      <stop
         style="stop-color:#000000;stop-opacity:0;"
         offset="1"
         id="stop3916" />
    </linearGradient>
    <linearGradient
       inkscape:collect="always"
       xlink:href="#linearGradient3926"
       id="linearGradient3932"
       x1="269.82568"
       y1="67.743011"
       x2="187.16432"
       y2="-124.59004"
       gradientUnits="userSpaceOnUse"
       gradientTransform="translate(171.82695,-4.4068542)" />
    <linearGradient
       inkscape:collect="always"
       xlink:href="#linearGradient3934"
       id="linearGradient3950"
       gradientUnits="userSpaceOnUse"
       x1="280.39154"
       y1="31.241964"
       x2="190.43909"
       y2="-130.34383"
       gradientTransform="translate(203.64675,-335.87572)" />
    <linearGradient
       inkscape:collect="always"
       xlink:href="#linearGradient3990"
       id="linearGradient3952"
       gradientUnits="userSpaceOnUse"
       x1="315.19458"
       y1="10.546355"
       x2="193.4142"
       y2="-111.23402"
       gradientTransform="translate(-248.01509,-326.43257)" />
    <linearGradient
       inkscape:collect="always"
       xlink:href="#linearGradient3934"
       id="linearGradient3958"
       gradientUnits="userSpaceOnUse"
       gradientTransform="matrix(0,1,-1,0,91.75875,-483.78363)"
       x1="280.39154"
       y1="31.241964"
       x2="155.79085"
       y2="-193.62988" />
    <linearGradient
       inkscape:collect="always"
       xlink:href="#linearGradient3962"
       id="linearGradient3968"
       x1="-43.433552"
       y1="-391.23865"
       x2="-6.9086695"
       y2="-363.09845"
       gradientUnits="userSpaceOnUse"
       gradientTransform="translate(3.999998,3.5)" />
    <filter
       id="filter3978"
       style="color-interpolation-filters:sRGB;"
       inkscape:label="Drop Shadow">
      <feFlood
         id="feFlood3980"
         flood-opacity="0.5"
         flood-color="rgb(0,0,0)"
         result="flood" />
      <feComposite
         id="feComposite3982"
         in2="SourceGraphic"
         in="flood"
         operator="in"
         result="composite1" />
      <feGaussianBlur
         id="feGaussianBlur3984"
         in="composite"
         stdDeviation="2"
         result="blur" />
      <feOffset
         id="feOffset3986"
         dx="4"
         dy="4"
         result="offset" />
      <feComposite
         id="feComposite3988"
         in2="offset"
         in="SourceGraphic"
         operator="over"
         result="composite2" />
    </filter>
    <linearGradient
       inkscape:collect="always"
       xlink:href="#linearGradient3990"
       id="linearGradient4004"
       gradientUnits="userSpaceOnUse"
       gradientTransform="translate(-126.23469,-204.65219)"
       x1="321.89154"
       y1="47.241962"
       x2="174.29085"
       y2="-150.62988" />
    <linearGradient
       inkscape:collect="always"
       xlink:href="#linearGradient3990"
       id="linearGradient4006"
       gradientUnits="userSpaceOnUse"
       gradientTransform="translate(-95.280026,-416.94223)"
       x1="193.4142"
       y1="10.54638"
       x2="315.19458"
       y2="-111.23402" />
    <linearGradient
       inkscape:collect="always"
       xlink:href="#linearGradient3990"
       id="linearGradient4008"
       gradientUnits="userSpaceOnUse"
       gradientTransform="translate(-271.34962,-140.46348)"
       x1="315.19458"
       y1="-111.23402"
       x2="193.41422"
       y2="10.54638" />
    <linearGradient
       inkscape:collect="always"
       xlink:href="#linearGradient3990"
       id="linearGradient4010"
       gradientUnits="userSpaceOnUse"
       gradientTransform="translate(0.29954882,-515.60937)"
       x1="321.89154"
       y1="47.241962"
       x2="174.29085"
       y2="-150.62988" />
  </defs>
  <sodipodi:namedview
     id="base"
     pagecolor="#ffffff"
     bordercolor="#666666"
     borderopacity="1.0"
     inkscape:pageopacity="0.0"
     inkscape:pageshadow="2"
     inkscape:zoom="1"
     inkscape:cx="229.02949"
     inkscape:cy="1337.9993"
     inkscape:document-units="px"
     inkscape:current-layer="layer1"
     showgrid="false"
     inkscape:window-width="1231"
     inkscape:window-height="1000"
     inkscape:window-x="49"
     inkscape:window-y="24"
     inkscape:window-maximized="1"
     inkscape:object-nodes="true" />
  <metadata
     id="metadata7">
    <rdf:RDF>
      <cc:Work
         rdf:about="">
        <dc:format>image/svg+xml</dc:format>
        <dc:type
           rdf:resource="http://purl.org/dc/dcmitype/StillImage" />
      </cc:Work>
    </rdf:RDF>
  </metadata>
  <g
     inkscape:label="Layer 1"
     inkscape:groupmode="layer"
     id="layer1">
    <image
       y="319.24692"
       x="1031.8473"
       id="image2993"
       xlink:href="file:///home/tungbt/workspace/Jsl/examples/jigsaw/imgs/stock-vector-vector-business-model-profit-risk-and-loss-103082879.jpg"
       height="372"
       width="450" />
    <path
       style="fill:none;stroke:#000080;stroke-opacity:1"
       d="M 0,0 -44.285714,-31.744963"
       id="path3103"
       inkscape:connector-curvature="0" />
    <path
       id="path3107"
       d="M 0,0 365,-124 469,-48 531,-4 458,78 404,142 448,187 486,227 547,233 608,239"
       style="fill:none;stroke:#000000;stroke-width:10px;stroke-linecap:butt;stroke-linejoin:miter;stroke-opacity:1"
       inkscape:connector-curvature="0" />
    <path
       sodipodi:nodetypes="ccccccccccccccccccc"
       inkscape:connector-curvature="0"
       id="path3133"
       d="M 2e-7,0 Q 36.51069,12.44674 46.97371,4.8894305 53.125,0.44643 45.810811,-7.8743 40.44644,-14.28571 44.80734,-18.76144 48.691011,-22.747361 54.72699,-23.354771 60.890191,-23.97497 67.053391,-23.354771 73.08937,-22.747361 76.97304,-18.76144 81.33394,-14.28571 75.969571,-7.8743 68.655381,0.44643 74.806671,4.8894305 85.269691,12.44674 121.78038,0 134.22712,36.51069 126.66981,46.97371 122.22681,53.125 113.90608,45.81081 107.49467,40.44644 103.01894,44.80734 99.033021,48.69101 98.425611,54.72699 97.805411,60.890199 98.425611,67.053399 99.033021,73.089379 103.01894,76.973049 107.49467,81.333949 113.90608,75.969579 122.22681,68.655389 126.66981,74.806679 134.22712,85.269699 121.78039,121.78039 85.269688,109.33365 74.806668,116.89096 68.655378,121.33396 75.969569,129.65469 81.333939,136.0661 76.973038,140.54183 73.08937,144.52775 67.053388,145.13516 60.890189,145.75536 54.72699,145.13516 48.691011,144.52775 44.807339,140.54183 40.446439,136.0661 45.81081,129.65469 53.125,121.33396 46.973709,116.89096 36.510689,109.33365 0,121.78039 -12.44674,85.269691 -4.88943,74.806671 -0.44643,68.655381 7.8742985,75.969571 14.285708,81.333941 18.761438,76.973041 22.747358,73.089371 23.354768,67.053391 23.974968,60.890191 23.354768,54.726991 22.747358,48.69101 18.761438,44.80734 14.285708,40.44644 7.8742985,45.81081 -0.44643,53.125001 -4.88943,46.97371 -12.44674,36.51069 0,0"
       style="fill:none;stroke:#0b83c0;stroke-width:1px;stroke-linecap:butt;stroke-linejoin:miter;stroke-opacity:1" />
    <path
       style="fill:url(#linearGradient3952);fill-opacity:1;stroke:none;filter:url(#filter3978)"
       d="M -54.600886,-437.66659 Q -18.090196,-425.21985 -7.6271765,-432.77716 -1.4758865,-437.22016 -8.7900765,-445.54089 -14.154446,-451.9523 -9.7935465,-456.42803 -5.9098765,-460.41395 0.12610353,-461.02136 6.2893035,-461.64156 12.452504,-461.02136 18.488484,-460.41395 22.372154,-456.42803 26.733054,-451.9523 21.368684,-445.54089 14.054494,-437.22016 20.205784,-432.77716 30.668804,-425.21985 67.179496,-437.66659 79.62624,-401.1559 72.068926,-390.69288 67.625926,-384.54159 59.305196,-391.85578 52.893784,-397.22015 48.418054,-392.85925 44.432134,-388.97558 43.824724,-382.9396 43.204524,-376.77639 43.824724,-370.61319 44.432134,-364.57721 48.418054,-360.69354 52.893784,-356.33264 59.305196,-361.69701 67.625926,-369.0112 72.068926,-362.85991 79.62624,-352.39689 67.179506,-315.88619 30.668804,-328.33293 20.205784,-320.77562 14.054494,-316.33262 21.368684,-308.01189 26.733054,-301.60048 22.372154,-297.12475 18.488484,-293.13883 12.452504,-292.53142 6.2893035,-291.91122 0.12610353,-292.53142 -5.9098765,-293.13883 -9.7935465,-297.12475 -14.154446,-301.60048 -8.7900765,-308.01189 -1.4758865,-316.33262 -7.6271765,-320.77562 -18.090196,-328.33293 -54.600886,-315.88619 -67.047626,-352.39689 -59.490316,-362.85992 -55.047316,-369.01121 -46.726586,-361.69702 -40.315176,-356.33264 -35.839446,-360.69354 -31.853526,-364.57722 -31.246116,-370.6132 -30.625916,-376.7764 -31.246116,-382.9396 -31.853526,-388.97558 -35.839446,-392.85925 -40.315176,-397.22015 -46.726586,-391.85578 -55.047316,-384.54159 -59.490316,-390.69288 -67.047626,-401.1559 -54.600886,-437.66659"
       id="path3135"
       inkscape:connector-curvature="0"
       sodipodi:nodetypes="ccccccccccccccccccc" />
    <path
       style="fill:url(#linearGradient3932);fill-opacity:1"
       d="M 421.74301,-104.0561 C 415.67204,-105.0292 404.28883,-99.168527 410.61801,-92.274848 414.92342,-88.358001 418.23238,-80.330023 412.36801,-76.274848 402.17536,-69.596353 388.99152,-73.734524 378.02426,-76.024848 373.70839,-76.917518 368.80532,-79.220348 364.96176,-79.587348 361.25354,-66.443666 355.499,-52.290318 359.49301,-38.556098 360.51166,-34.176127 365.617,-33.731968 368.49301,-36.618598 372.29146,-40.798414 379.5913,-43.980608 384.05551,-39.024848 391.13209,-31.787096 389.99289,-20.351491 388.36801,-11.212349 386.90162,-5.1373754 380.10982,1.1337882 373.83676,-2.6810985 370.02451,-4.3940972 365.39203,-11.23026 361.05551,-7.0873485 355.4111,1.5398997 358.99968,12.889853 360.77426,22.225152 362.32621,26.891556 363.17742,32.961221 365.46176,36.662652 379.2078,32.656276 394.16061,26.937333 408.52426,31.006402 414.48074,32.401738 417.80352,39.670881 413.89926,44.756402 411.68392,48.195247 405.91571,53.152538 410.39926,57.037652 416.9259,62.580289 426.68209,61.386163 434.46176,59.818902 438.32941,58.799224 442.80651,54.484717 439.71176,50.475152 435.85733,46.127719 430.81526,38.992817 436.24301,33.787652 445.39701,26.653032 458.211,30.094113 468.58616,32.194285 473.90465,33.159151 479.65732,35.73877 484.46176,36.443902 488.21157,23.242762 493.97518,9.0414208 489.86801,-4.7435985 488.85103,-8.9095653 483.67793,-9.4566139 480.86801,-6.4623485 477.03764,-2.3609369 469.89771,0.82549057 465.36801,-4.1185985 458.30625,-11.356441 459.42052,-22.795865 461.05551,-31.931098 462.54643,-38.008861 469.24367,-44.253784 475.58676,-40.493598 479.34772,-38.772436 484.08979,-31.90814 488.36801,-36.056098 494.03713,-44.66622 490.42424,-56.049136 488.64926,-65.368598 487.08625,-70.051236 486.27833,-76.049723 483.96176,-79.806098 470.17939,-75.782005 455.25949,-70.10519 440.86801,-74.149848 434.9306,-75.620131 431.61774,-82.828103 435.52426,-87.931098 437.55999,-91.302418 443.3549,-95.839852 439.30551,-99.868598 434.82292,-104.66817 427.73285,-104.11889 421.74301,-104.0561 z"
       id="path3920"
       inkscape:connector-curvature="0" />
    <path
       style="fill:url(#linearGradient3950);fill-opacity:1;stroke:#0b83c0;stroke-width:2;stroke-linecap:butt;stroke-linejoin:miter;stroke-miterlimit:4;stroke-opacity:1;stroke-dasharray:none"
       d="M 397.06096,-447.10974 C 421.40142,-438.81191 437.05932,-437.1821 444.03467,-442.22031 448.13553,-445.18231 447.7479,-449.43689 442.87177,-454.98404 439.29552,-459.25831 438.96103,-462.88736 441.8683,-465.87118 444.45741,-468.52846 447.76396,-470.05957 451.78795,-470.46451 455.89675,-470.87798 460.00555,-470.87798 464.11435,-470.46451 468.13834,-470.05957 471.44489,-468.52846 474.034,-465.87118 476.94127,-462.88736 476.60678,-459.25831 473.03053,-454.98404 468.1544,-449.43689 467.76677,-445.18231 471.86763,-442.22031 478.84298,-437.1821 494.50088,-438.81191 518.84134,-447.10974 527.13917,-422.76928 528.76898,-407.11138 523.73077,-400.13603 520.76877,-396.03517 516.51419,-396.4228 510.96704,-401.29893 506.69277,-404.87518 503.06372,-405.20967 500.0799,-402.3024 497.42262,-399.71329 495.89151,-396.40674 495.48657,-392.38275 495.0731,-388.27394 495.0731,-384.16514 495.48657,-380.05634 495.89151,-376.03235 497.42262,-372.7258 500.0799,-370.13669 503.06372,-367.22942 506.69277,-367.56391 510.96704,-371.14016 516.51419,-376.01629 520.76877,-376.40392 523.73077,-372.30306 528.76898,-365.32771 527.13917,-349.66981 518.84135,-325.32935 494.50088,-333.62717 478.84298,-335.25698 471.86763,-330.21878 467.76677,-327.25678 468.1544,-323.0022 473.03053,-317.45505 476.60678,-313.18078 476.94127,-309.55173 474.034,-306.56791 471.44489,-303.91063 468.13834,-302.37952 464.11435,-301.97458 460.00555,-301.56111 455.89675,-301.56111 451.78795,-301.97458 447.76396,-302.37952 444.45741,-303.91063 441.8683,-306.56791 438.96103,-309.55173 439.29552,-313.18078 442.87177,-317.45505 447.7479,-323.0022 448.13553,-327.25678 444.03467,-330.21878 437.05932,-335.25698 421.40142,-333.62717 397.06096,-325.32935 388.76313,-349.66981 387.13332,-365.32772 392.17153,-372.30307 395.13353,-376.40393 399.38811,-376.0163 404.93526,-371.14017 409.20953,-367.56392 412.83858,-367.22943 415.8224,-370.1367 418.47968,-372.72581 420.01079,-376.03236 420.41573,-380.05635 420.8292,-384.16515 420.8292,-388.27395 420.41573,-392.38275 420.01079,-396.40674 418.47968,-399.71329 415.8224,-402.3024 412.83858,-405.20967 409.20953,-404.87518 404.93526,-401.29893"
       id="path3946"
       inkscape:connector-curvature="0" />
    <path
       style="fill:none;stroke:#ffffff;stroke-width:1.98756707;stroke-linecap:butt;stroke-linejoin:miter;stroke-miterlimit:4;stroke-opacity:0.56544501;stroke-dasharray:none"
       d="M 164.17238,-134.71203 C 158.62523,-129.89634 155.07775,-127.50577 152.11575,-131.5558 147.07754,-138.4447 148.88413,-152.42455 157.18196,-176.46334"
       id="path3942"
       inkscape:connector-curvature="0"
       sodipodi:nodetypes="csc" />
    <path
       sodipodi:nodetypes="ccccccccccccccccccc"
       inkscape:connector-curvature="0"
       id="path3996"
       d="M 193.71375,-626.84339 Q 230.22444,-614.39665 240.68746,-621.95396 246.83875,-626.39696 239.52456,-634.71769 234.16019,-641.1291 238.52109,-645.60483 242.40476,-649.59075 248.44074,-650.19816 254.60394,-650.81836 260.76714,-650.19816 266.80312,-649.59075 270.68679,-645.60483 275.04769,-641.1291 269.68332,-634.71769 262.36913,-626.39696 268.52042,-621.95396 278.98344,-614.39665 315.49413,-626.84339 327.94088,-590.3327 320.38356,-579.86968 315.94056,-573.71839 307.61983,-581.03258 301.20842,-586.39695 296.73269,-582.03605 292.74677,-578.15238 292.13936,-572.1164 291.51916,-565.95319 292.13936,-559.78999 292.74677,-553.75401 296.73269,-549.87034 301.20842,-545.50944 307.61983,-550.87381 315.94056,-558.188 320.38356,-552.03671 327.94088,-541.57369 315.49414,-505.06299 278.98344,-517.50973 268.52042,-509.95242 262.36913,-505.50942 269.68332,-497.18869 275.04769,-490.77728 270.68679,-486.30155 266.80312,-482.31563 260.76714,-481.70822 254.60394,-481.08802 248.44074,-481.70822 242.40476,-482.31563 238.52109,-486.30155 234.16019,-490.77728 239.52456,-497.18869 246.83875,-505.50942 240.68746,-509.95242 230.22444,-517.50973 193.71375,-505.06299 181.26701,-541.57369 188.82432,-552.03672 193.26732,-558.18801 201.58805,-550.87382 207.99946,-545.50944 212.47519,-549.87034 216.46111,-553.75402 217.06852,-559.79 217.68872,-565.9532 217.06852,-572.1164 216.46111,-578.15238 212.47519,-582.03605 207.99946,-586.39695 201.58805,-581.03258 193.26732,-573.71839 188.82432,-579.86968 181.26701,-590.3327 193.71375,-626.84339"
       style="fill:url(#linearGradient4010);fill-opacity:1;stroke:none;filter:url(#filter3978)" />
    <path
       style="fill:url(#linearGradient4008);fill-opacity:1;stroke:none;filter:url(#filter3978)"
       d="M -77.93541,-251.6975 Q -41.42472,-239.25076 -30.9617,-246.80807 -24.81041,-251.25107 -32.1246,-259.5718 -37.48897,-265.98321 -33.12807,-270.45894 -29.2444,-274.44486 -23.20842,-275.05227 -17.04522,-275.67247 -10.88202,-275.05227 -4.8460401,-274.44486 -0.96237015,-270.45894 3.3985299,-265.98321 -1.9658401,-259.5718 -9.2800301,-251.25107 -3.1287401,-246.80807 7.3342796,-239.25076 43.844972,-251.6975 56.291716,-215.18681 48.734402,-204.72379 44.291402,-198.5725 35.970672,-205.88669 29.55926,-211.25106 25.08353,-206.89016 21.09761,-203.00649 20.4902,-196.97051 19.87,-190.8073 20.4902,-184.6441 21.09761,-178.60812 25.08353,-174.72445 29.55926,-170.36355 35.970672,-175.72792 44.291402,-183.04211 48.734402,-176.89082 56.291716,-166.4278 43.844982,-129.9171 7.3342796,-142.36384 -3.1287401,-134.80653 -9.2800301,-130.36353 -1.9658401,-122.0428 3.3985299,-115.6314 -0.96237015,-111.15567 -4.8460401,-107.16975 -10.88202,-106.56234 -17.04522,-105.94214 -23.20842,-106.56234 -29.2444,-107.16975 -33.12807,-111.15567 -37.48897,-115.6314 -32.1246,-122.0428 -24.81041,-130.36353 -30.9617,-134.80653 -41.42472,-142.36384 -77.93541,-129.9171 -90.38215,-166.4278 -82.82484,-176.89083 -78.38184,-183.04212 -70.06111,-175.72793 -63.6497,-170.36355 -59.17397,-174.72445 -55.18805,-178.60813 -54.58064,-184.64411 -53.96044,-190.80731 -54.58064,-196.97051 -55.18805,-203.00649 -59.17397,-206.89016 -63.6497,-211.25106 -70.06111,-205.88669 -78.38184,-198.5725 -82.82484,-204.72379 -90.38215,-215.18681 -77.93541,-251.6975"
       id="path3998"
       inkscape:connector-curvature="0"
       sodipodi:nodetypes="ccccccccccccccccccc"
       transform="matrix(0,1,-1,0,-184.51799,-237.95078)" />
    <path
       sodipodi:nodetypes="ccccccccccccccccccc"
       inkscape:connector-curvature="0"
       id="path4000"
       d="M 98.134175,-528.17625 Q 134.64486,-515.72951 145.10788,-523.28682 151.25917,-527.72982 143.94498,-536.05055 138.58061,-542.46196 142.94151,-546.93769 146.82518,-550.92361 152.86116,-551.53102 159.02436,-552.15122 165.18756,-551.53102 171.22354,-550.92361 175.10721,-546.93769 179.46811,-542.46196 174.10374,-536.05055 166.78955,-527.72982 172.94084,-523.28682 183.40386,-515.72951 219.91455,-528.17625 232.3613,-491.66556 224.80398,-481.20254 220.36098,-475.05125 212.04025,-482.36544 205.62884,-487.72981 201.15311,-483.36891 197.16719,-479.48524 196.55978,-473.44926 195.93958,-467.28605 196.55978,-461.12285 197.16719,-455.08687 201.15311,-451.2032 205.62884,-446.8423 212.04025,-452.20667 220.36098,-459.52086 224.80398,-453.36957 232.3613,-442.90655 219.91456,-406.39585 183.40386,-418.84259 172.94084,-411.28528 166.78955,-406.84228 174.10374,-398.52155 179.46811,-392.11014 175.10721,-387.63441 171.22354,-383.64849 165.18756,-383.04108 159.02436,-382.42088 152.86116,-383.04108 146.82518,-383.64849 142.94151,-387.63441 138.58061,-392.11014 143.94498,-398.52155 151.25917,-406.84228 145.10788,-411.28528 134.64486,-418.84259 98.134175,-406.39585 85.687438,-442.90655 93.244745,-453.36958 97.687745,-459.52087 106.00847,-452.20668 112.41988,-446.8423 116.89561,-451.2032 120.88153,-455.08688 121.48894,-461.12286 122.10914,-467.28606 121.48894,-473.44926 120.88153,-479.48524 116.89561,-483.36891 112.41988,-487.72981 106.00847,-482.36544 97.687745,-475.05125 93.244745,-481.20254 85.687438,-491.66556 98.134175,-528.17625"
       style="fill:url(#linearGradient4006);fill-opacity:1;stroke:none;filter:url(#filter3978)"
       transform="matrix(0,-1,1,0,595.35575,-217.75204)" />
    <path
       style="fill:url(#linearGradient4004);fill-opacity:1;stroke:none;filter:url(#filter3978)"
       d="M 67.17951,-315.88621 Q 103.6902,-303.43947 114.15322,-310.99678 120.30451,-315.43978 112.99032,-323.76051 107.62595,-330.17192 111.98685,-334.64765 115.87052,-338.63357 121.9065,-339.24098 128.0697,-339.86118 134.2329,-339.24098 140.26888,-338.63357 144.15255,-334.64765 148.51345,-330.17192 143.14908,-323.76051 135.83489,-315.43978 141.98618,-310.99678 152.4492,-303.43947 188.95989,-315.88621 201.40664,-279.37552 193.84932,-268.9125 189.40632,-262.76121 181.08559,-270.0754 174.67418,-275.43977 170.19845,-271.07887 166.21253,-267.1952 165.60512,-261.15922 164.98492,-254.99601 165.60512,-248.83281 166.21253,-242.79683 170.19845,-238.91316 174.67418,-234.55226 181.08559,-239.91663 189.40632,-247.23082 193.84932,-241.07953 201.40664,-230.61651 188.9599,-194.10581 152.4492,-206.55255 141.98618,-198.99524 135.83489,-194.55224 143.14908,-186.23151 148.51345,-179.8201 144.15255,-175.34437 140.26888,-171.35845 134.2329,-170.75104 128.0697,-170.13084 121.9065,-170.75104 115.87052,-171.35845 111.98685,-175.34437 107.62595,-179.8201 112.99032,-186.23151 120.30451,-194.55224 114.15322,-198.99524 103.6902,-206.55255 67.17951,-194.10581 54.73277,-230.61651 62.29008,-241.07954 66.73308,-247.23083 75.05381,-239.91664 81.46522,-234.55226 85.94095,-238.91316 89.92687,-242.79684 90.53428,-248.83282 91.15448,-254.99602 90.53428,-261.15922 89.92687,-267.1952 85.94095,-271.07887 81.46522,-275.43977 75.05381,-270.0754 66.73308,-262.76121 62.29008,-268.9125 54.73277,-279.37552 67.17951,-315.88621"
       id="path4002"
       inkscape:connector-curvature="0"
       sodipodi:nodetypes="ccccccccccccccccccc" />
  </g>
</svg>
