<?xml version="1.0" encoding="UTF-8" standalone="no"?>
<!-- Created with Inkscape (http://www.inkscape.org/) -->

<svg
   xmlns:dc="http://purl.org/dc/elements/1.1/"
   xmlns:cc="http://creativecommons.org/ns#"
   xmlns:rdf="http://www.w3.org/1999/02/22-rdf-syntax-ns#"
   xmlns:svg="http://www.w3.org/2000/svg"
   xmlns="http://www.w3.org/2000/svg"
   xmlns:xlink="http://www.w3.org/1999/xlink"
   xmlns:sodipodi="http://sodipodi.sourceforge.net/DTD/sodipodi-0.dtd"
   xmlns:inkscape="http://www.inkscape.org/namespaces/inkscape"
   width="744.09448819"
   height="1052.3622047"
   id="svg2"
   version="1.1"
   inkscape:version="0.48.3.1 r9886"
   sodipodi:docname="myjig.svg">
  <defs
     id="defs4">
    <linearGradient
       inkscape:collect="always"
       id="linearGradient3934">
      <stop
         style="stop-color:#046899;stop-opacity:1;"
         offset="0"
         id="stop3936" />
      <stop
         style="stop-color:#046899;stop-opacity:0;"
         offset="1"
         id="stop3938" />
    </linearGradient>
    <linearGradient
       inkscape:collect="always"
       id="linearGradient3926">
      <stop
         style="stop-color:#046899;stop-opacity:1;"
         offset="0"
         id="stop3928" />
      <stop
         style="stop-color:#046899;stop-opacity:0;"
         offset="1"
         id="stop3930" />
    </linearGradient>
    <linearGradient
       id="linearGradient3912">
      <stop
         style="stop-color:#000000;stop-opacity:0.2303665"
         offset="0"
         id="stop3914" />
      <stop
         style="stop-color:#000000;stop-opacity:0;"
         offset="1"
         id="stop3916" />
    </linearGradient>
    <linearGradient
       inkscape:collect="always"
       xlink:href="#linearGradient3926"
       id="linearGradient3932"
       x1="269.82568"
       y1="67.743011"
       x2="187.16432"
       y2="-124.59004"
       gradientUnits="userSpaceOnUse"
       gradientTransform="translate(171.82695,-4.4068542)" />
    <linearGradient
       inkscape:collect="always"
       xlink:href="#linearGradient3934"
       id="linearGradient3950"
       gradientUnits="userSpaceOnUse"
       x1="280.39154"
       y1="31.241964"
       x2="190.43909"
       y2="-130.34383"
       gradientTransform="translate(203.64675,-335.87572)" />
    <linearGradient
       inkscape:collect="always"
       xlink:href="#linearGradient3934"
       id="linearGradient3952"
       gradientUnits="userSpaceOnUse"
       x1="280.39154"
       y1="31.241964"
       x2="155.79085"
       y2="-193.62988"
       gradientTransform="translate(-221.34776,-255.00462)" />
  </defs>
  <sodipodi:namedview
     id="base"
     pagecolor="#ffffff"
     bordercolor="#666666"
     borderopacity="1.0"
     inkscape:pageopacity="0.0"
     inkscape:pageshadow="2"
     inkscape:zoom="0.35355339"
     inkscape:cx="548.073"
     inkscape:cy="1087.0604"
     inkscape:document-units="px"
     inkscape:current-layer="layer1"
     showgrid="false"
     inkscape:window-width="1231"
     inkscape:window-height="1000"
     inkscape:window-x="49"
     inkscape:window-y="24"
     inkscape:window-maximized="1"
     inkscape:object-nodes="true" />
  <metadata
     id="metadata7">
    <rdf:RDF>
      <cc:Work
         rdf:about="">
        <dc:format>image/svg+xml</dc:format>
        <dc:type
           rdf:resource="http://purl.org/dc/dcmitype/StillImage" />
      </cc:Work>
    </rdf:RDF>
  </metadata>
  <g
     inkscape:label="Layer 1"
     inkscape:groupmode="layer"
     id="layer1">
    <image
       y="319.24692"
       x="1031.8473"
       id="image2993"
       xlink:href="file:///home/tungbt/workspace/Jsl/examples/jigsaw/imgs/stock-vector-vector-business-model-profit-risk-and-loss-103082879.jpg"
       height="372"
       width="450" />
    <path
       style="fill:none;stroke:#000080;stroke-opacity:1"
       d="M 0,0 -44.285714,-31.744963"
       id="path3103"
       inkscape:connector-curvature="0" />
    <path
       id="path3107"
       d="M 0,0 365,-124 469,-48 531,-4 458,78 404,142 448,187 486,227 547,233 608,239"
       style="fill:none;stroke:#000000;stroke-width:10px;stroke-linecap:butt;stroke-linejoin:miter;stroke-opacity:1"
       inkscape:connector-curvature="0" />
    <path
       sodipodi:nodetypes="ccccccccccccccccccc"
       inkscape:connector-curvature="0"
       id="path3133"
       d="M 2e-7,0 Q 36.51069,12.44674 46.97371,4.8894305 53.125,0.44643 45.810811,-7.8743 40.44644,-14.28571 44.80734,-18.76144 48.691011,-22.747361 54.72699,-23.354771 60.890191,-23.97497 67.053391,-23.354771 73.08937,-22.747361 76.97304,-18.76144 81.33394,-14.28571 75.969571,-7.8743 68.655381,0.44643 74.806671,4.8894305 85.269691,12.44674 121.78038,0 134.22712,36.51069 126.66981,46.97371 122.22681,53.125 113.90608,45.81081 107.49467,40.44644 103.01894,44.80734 99.033021,48.69101 98.425611,54.72699 97.805411,60.890199 98.425611,67.053399 99.033021,73.089379 103.01894,76.973049 107.49467,81.333949 113.90608,75.969579 122.22681,68.655389 126.66981,74.806679 134.22712,85.269699 121.78039,121.78039 85.269688,109.33365 74.806668,116.89096 68.655378,121.33396 75.969569,129.65469 81.333939,136.0661 76.973038,140.54183 73.08937,144.52775 67.053388,145.13516 60.890189,145.75536 54.72699,145.13516 48.691011,144.52775 44.807339,140.54183 40.446439,136.0661 45.81081,129.65469 53.125,121.33396 46.973709,116.89096 36.510689,109.33365 0,121.78039 -12.44674,85.269691 -4.88943,74.806671 -0.44643,68.655381 7.8742985,75.969571 14.285708,81.333941 18.761438,76.973041 22.747358,73.089371 23.354768,67.053391 23.974968,60.890191 23.354768,54.726991 22.747358,48.69101 18.761438,44.80734 14.285708,40.44644 7.8742985,45.81081 -0.44643,53.125001 -4.88943,46.97371 -12.44674,36.51069 0,0"
       style="fill:none;stroke:#0b83c0;stroke-width:1px;stroke-linecap:butt;stroke-linejoin:miter;stroke-opacity:1" />
    <path
       style="fill:url(#linearGradient3952);fill-opacity:1;stroke:#0b83c0;stroke-width:2;stroke-linecap:butt;stroke-linejoin:miter;stroke-miterlimit:4;stroke-opacity:1;stroke-dasharray:none"
       d="M -27.933552,-366.23864 Q 8.5771378,-353.7919 19.040158,-361.34921 25.191448,-365.79221 17.877258,-374.11294 12.512888,-380.52435 16.873788,-385.00008 20.757458,-388.986 26.793438,-389.59341 32.956638,-390.21361 39.119838,-389.59341 45.155818,-388.986 49.039488,-385.00008 53.400388,-380.52435 48.036018,-374.11294 40.721828,-365.79221 46.873118,-361.34921 57.336138,-353.7919 93.846828,-366.23864 106.29357,-329.72795 98.736258,-319.26493 94.293258,-313.11364 85.972528,-320.42783 79.561118,-325.7922 75.085388,-321.4313 71.099468,-317.54763 70.492058,-311.51165 69.871858,-305.34844 70.492058,-299.18524 71.099468,-293.14926 75.085388,-289.26559 79.561118,-284.90469 85.972528,-290.26906 94.293258,-297.58325 98.736258,-291.43196 106.29357,-280.96894 93.846838,-244.45824 57.336138,-256.90498 46.873118,-249.34767 40.721828,-244.90467 48.036018,-236.58394 53.400388,-230.17253 49.039488,-225.6968 45.155818,-221.71088 39.119838,-221.10347 32.956638,-220.48327 26.793438,-221.10347 20.757458,-221.71088 16.873788,-225.6968 12.512888,-230.17253 17.877258,-236.58394 25.191448,-244.90467 19.040158,-249.34767 8.5771378,-256.90498 -27.933552,-244.45824 -40.380292,-280.96894 -32.822982,-291.43197 -28.379982,-297.58326 -20.059252,-290.26907 -13.647842,-284.90469 -9.1721122,-289.26559 -5.1861922,-293.14927 -4.5787822,-299.18525 -3.9585822,-305.34845 -4.5787822,-311.51165 -5.1861922,-317.54763 -9.1721122,-321.4313 -13.647842,-325.7922 -20.059252,-320.42783 -28.379982,-313.11364 -32.822982,-319.26493 -40.380292,-329.72795 -27.933552,-366.23864"
       id="path3135"
       inkscape:connector-curvature="0"
       sodipodi:nodetypes="ccccccccccccccccccc" />
    <path
       style="fill:url(#linearGradient3932);fill-opacity:1"
       d="M 421.74301,-104.0561 C 415.67204,-105.0292 404.28883,-99.168527 410.61801,-92.274848 414.92342,-88.358001 418.23238,-80.330023 412.36801,-76.274848 402.17536,-69.596353 388.99152,-73.734524 378.02426,-76.024848 373.70839,-76.917518 368.80532,-79.220348 364.96176,-79.587348 361.25354,-66.443666 355.499,-52.290318 359.49301,-38.556098 360.51166,-34.176127 365.617,-33.731968 368.49301,-36.618598 372.29146,-40.798414 379.5913,-43.980608 384.05551,-39.024848 391.13209,-31.787096 389.99289,-20.351491 388.36801,-11.212349 386.90162,-5.1373754 380.10982,1.1337882 373.83676,-2.6810985 370.02451,-4.3940972 365.39203,-11.23026 361.05551,-7.0873485 355.4111,1.5398997 358.99968,12.889853 360.77426,22.225152 362.32621,26.891556 363.17742,32.961221 365.46176,36.662652 379.2078,32.656276 394.16061,26.937333 408.52426,31.006402 414.48074,32.401738 417.80352,39.670881 413.89926,44.756402 411.68392,48.195247 405.91571,53.152538 410.39926,57.037652 416.9259,62.580289 426.68209,61.386163 434.46176,59.818902 438.32941,58.799224 442.80651,54.484717 439.71176,50.475152 435.85733,46.127719 430.81526,38.992817 436.24301,33.787652 445.39701,26.653032 458.211,30.094113 468.58616,32.194285 473.90465,33.159151 479.65732,35.73877 484.46176,36.443902 488.21157,23.242762 493.97518,9.0414208 489.86801,-4.7435985 488.85103,-8.9095653 483.67793,-9.4566139 480.86801,-6.4623485 477.03764,-2.3609369 469.89771,0.82549057 465.36801,-4.1185985 458.30625,-11.356441 459.42052,-22.795865 461.05551,-31.931098 462.54643,-38.008861 469.24367,-44.253784 475.58676,-40.493598 479.34772,-38.772436 484.08979,-31.90814 488.36801,-36.056098 494.03713,-44.66622 490.42424,-56.049136 488.64926,-65.368598 487.08625,-70.051236 486.27833,-76.049723 483.96176,-79.806098 470.17939,-75.782005 455.25949,-70.10519 440.86801,-74.149848 434.9306,-75.620131 431.61774,-82.828103 435.52426,-87.931098 437.55999,-91.302418 443.3549,-95.839852 439.30551,-99.868598 434.82292,-104.66817 427.73285,-104.11889 421.74301,-104.0561 z"
       id="path3920"
       inkscape:connector-curvature="0" />
    <path
       style="fill:url(#linearGradient3950);fill-opacity:1;stroke:#0b83c0;stroke-width:2;stroke-linecap:butt;stroke-linejoin:miter;stroke-miterlimit:4;stroke-opacity:1;stroke-dasharray:none"
       d="M 397.06096,-447.10974 C 421.40142,-438.81191 437.05932,-437.1821 444.03467,-442.22031 448.13553,-445.18231 447.7479,-449.43689 442.87177,-454.98404 439.29552,-459.25831 438.96103,-462.88736 441.8683,-465.87118 444.45741,-468.52846 447.76396,-470.05957 451.78795,-470.46451 455.89675,-470.87798 460.00555,-470.87798 464.11435,-470.46451 468.13834,-470.05957 471.44489,-468.52846 474.034,-465.87118 476.94127,-462.88736 476.60678,-459.25831 473.03053,-454.98404 468.1544,-449.43689 467.76677,-445.18231 471.86763,-442.22031 478.84298,-437.1821 494.50088,-438.81191 518.84134,-447.10974 527.13917,-422.76928 528.76898,-407.11138 523.73077,-400.13603 520.76877,-396.03517 516.51419,-396.4228 510.96704,-401.29893 506.69277,-404.87518 503.06372,-405.20967 500.0799,-402.3024 497.42262,-399.71329 495.89151,-396.40674 495.48657,-392.38275 495.0731,-388.27394 495.0731,-384.16514 495.48657,-380.05634 495.89151,-376.03235 497.42262,-372.7258 500.0799,-370.13669 503.06372,-367.22942 506.69277,-367.56391 510.96704,-371.14016 516.51419,-376.01629 520.76877,-376.40392 523.73077,-372.30306 528.76898,-365.32771 527.13917,-349.66981 518.84135,-325.32935 494.50088,-333.62717 478.84298,-335.25698 471.86763,-330.21878 467.76677,-327.25678 468.1544,-323.0022 473.03053,-317.45505 476.60678,-313.18078 476.94127,-309.55173 474.034,-306.56791 471.44489,-303.91063 468.13834,-302.37952 464.11435,-301.97458 460.00555,-301.56111 455.89675,-301.56111 451.78795,-301.97458 447.76396,-302.37952 444.45741,-303.91063 441.8683,-306.56791 438.96103,-309.55173 439.29552,-313.18078 442.87177,-317.45505 447.7479,-323.0022 448.13553,-327.25678 444.03467,-330.21878 437.05932,-335.25698 421.40142,-333.62717 397.06096,-325.32935 388.76313,-349.66981 387.13332,-365.32772 392.17153,-372.30307 395.13353,-376.40393 399.38811,-376.0163 404.93526,-371.14017 409.20953,-367.56392 412.83858,-367.22943 415.8224,-370.1367 418.47968,-372.72581 420.01079,-376.03236 420.41573,-380.05635 420.8292,-384.16515 420.8292,-388.27395 420.41573,-392.38275 420.01079,-396.40674 418.47968,-399.71329 415.8224,-402.3024 412.83858,-405.20967 409.20953,-404.87518 404.93526,-401.29893"
       id="path3946"
       inkscape:connector-curvature="0" />
    <path
       style="fill:none;stroke:#ffffff;stroke-width:1.98756707;stroke-linecap:butt;stroke-linejoin:miter;stroke-miterlimit:4;stroke-opacity:0.56544501;stroke-dasharray:none"
       d="M 164.17238,-134.71203 C 158.62523,-129.89634 155.07775,-127.50577 152.11575,-131.5558 147.07754,-138.4447 148.88413,-152.42455 157.18196,-176.46334"
       id="path3942"
       inkscape:connector-curvature="0"
       sodipodi:nodetypes="csc" />
  </g>
</svg>
