<?xml version="1.0"?>
<!DOCTYPE svg PUBLIC "-//W3C//DTD SVG 1.1//EN"
"http://www.w3.org/Graphics/SVG/1.1/DTD/svg11.dtd">

<svg xmlns="http://www.w3.org/2000/svg"
xmlns:xlink="http://www.w3.org/1999/xlink"
viewBox="-25 -25 50 50"

preserveAspectRatio="xMidYMid meet"
>

	<!--
	<script type="text/javascript" xlink:href="js/ext-core-debug.js"/>
	<script type="text/javascript" xlink:href="js/sylvester.src.js"/>
	<script type="text/javascript" xlink:href="js/core.js"/>
	-->
	<defs>
		<marker id="mCircle" markerWidth="10" markerHeight="10"
		refX="5" refY="5">
			<circle cx="5" cy="5" r="2" style="fill: none; stroke: black;"/>
		</marker>
		<path d="m 28.026,59.269 c 5.292,2.096 4.197,5.06 1.372,9.126 -3.294,4.745 2.792,6.423 6.667,6.97 4.069,0.574 8.322,0.114 12.102,-1.534 4.809,-2.097 4.047,-3.555 1.239,-6.976 -3.83,-4.667 0.894,-5.851 4.764,-6.475 5.851,-0.943 11.746,-1.614 17.661,-1.983 2.316,-0.145 4.637,-0.237 6.959,-0.286 -0.458,-2.976 -1.093,-6.013 -1.402,-9.404 -0.968,-10.62 3.574,-16.685 13.411,-12.38 8.269,3.618 11.251,-6.865 8.484,-13.03 C 95.679,15.27 86.351,25.388 80.28,21.72 76.138,18.433 76.499,8.204 77.973,0.5
		L 0.5,0.5 0.5,61.107 C 7.94099,59.529 22.24699,56.98 28.026,59.269 Z" fill="none" stroke="red"
		style="marker: url(#mCircle);"

		/>
		<path d="m 0.504,2.9154533 c 8.6079053,-1.65959 20.775707,-3.78861614 27.175116,-1.2207032 5.224571,2.0967454 4.143523,5.0617996 1.354518,9.1292459 -3.252029,4.746688 2.756426,6.425284 6.582051,6.972479 4.017155,0.574204 8.215964,0.11404 11.947801,-1.534546 4.747715,-2.097745 3.995424,-3.556264 1.223213,-6.9784809 C 41.989425,0.89146453 62.929164,0.21222304 67.116127,0.57335143 71.329745,0.93648053 75.365322,2.0352111 79.49601,2.9155241" fill="none" stroke="blue"
		style="stroke-width:0.5"

		/>
		<path d="m 0.504,2.9154533 c 8.6079053,-1.65959 20.775707,-3.78861614 27.175116,-1.2207032 5.224571,2.0967454 4.143523,5.0617996 1.354518,9.1292459 -3.252029,4.746688 2.756426,6.425284 6.582051,6.972479 4.017155,0.574204 8.215964,0.11404 11.947801,-1.534546 4.747715,-2.097745 3.995424,-3.556264 1.223213,-6.9784809 C 41.989425,0.89146453 62.929164,0.21222304 67.116127,0.57335143 71.329745,0.93648053 75.365322,2.0352111 79.49601,2.9155241  c 1.658732,8.7695496 3.786659,21.1658436 1.220073,27.6854246 -2.095662,5.322681 -5.059184,4.221333 -9.124529,1.379954 -4.744234,-3.313098 -6.421963,2.808188 -6.968875,6.705652 -0.172401,1.229422 -0.251511,2.475545 -0.233151,3.720455 -0.01836,1.24491 0.06075,2.491033 0.233151,3.720455 0.546912,3.897464 2.224641,10.018749 6.968875,6.705652 4.065344,-2.841379 7.028866,-3.942727 9.124528,1.379953 2.566586,6.519581 0.438659,18.915875 -1.220073,27.685425" fill="none" stroke="blue"
		style="stroke-width:0.5"

		/>

	</defs>
	<!--<script type="text/javascript" xlink:href="Jsl/Ext.js"/>-->
	<script type="text/javascript" xlink:href="jsl/jsl.js"/>
	<script type="text/javascript" xlink:href="jsl/vector.js"/>
	<script type="text/javascript" xlink:href="jsl/matrix.js"/>
	<script type="text/javascript" xlink:href="jsl/lib/sylvester.src.js"/>
	<script type="text/javascript" xlink:href="js/Jig.js"/>
	
	<path d="M -25 -25 L 25 25" fill="none" stroke-width="0.1px" stroke="red"/>
	<path d="M 0 0 L 25 0" fill="none" stroke-width="0.1px" stroke="red"/>

	<!--<rect x="0" y="0" width="700" height="700" style="fill:back;fill-opacity:0.5"/>-->
	<!--<script type="text/javascript" xlink:href="js/j.js"/>-->
</svg>
